<svg width="221" height="225" viewBox="0 0 221 225" fill="none" xmlns="http://www.w3.org/2000/svg">
<rect width="221" height="225" rx="30" fill="#E74B29"/>
<path d="M93.4531 44.2344H91.8125L84.0312 59.2344L77.0938 46.0625C76.5938 45.125 76.0312 44.5625 75.4062 44.375C75.0312 44.2812 74.5781 44.2344 74.0469 44.2344H71.0469V74H75.9219V53.0938L82.0156 65.0938H85.25L91.625 52.7656V74H96.9219V47.6094C96.9219 45.7656 96.2344 44.6875 94.8594 44.375C94.4531 44.2812 93.9844 44.2344 93.4531 44.2344ZM124.953 74L118.25 44.2344L112.719 44.0469C110.531 43.9844 109.031 44.4531 108.219 45.4531C107.656 46.1719 107.156 47.4062 106.719 49.1562L100.156 74H105.312L107.094 66.8281H117.922L119.469 74H124.953ZM111.406 49.5312C111.562 49.1875 111.75 49 111.969 48.9688H114.031L116.938 62.0938H108.266L111.406 49.5312ZM140.328 56.0938C140.109 56.4375 139.891 56.6094 139.672 56.6094H137.703C137.391 56.5469 137.172 56.375 137.047 56.0938L131.891 44.2344H126.078L130.766 54.875C131.641 56.9375 132.5 58.2344 133.344 58.7656C133.469 58.8594 133.594 58.9375 133.719 59C132.938 59.375 132.156 60.3438 131.375 61.9062C131.25 62.1875 131.062 62.5938 130.812 63.125L125.469 74H131.047L136.766 61.9062C136.984 61.5625 137.203 61.3906 137.422 61.3906H139.391C139.703 61.4531 139.922 61.625 140.047 61.9062L145.812 74H151.672L146.234 63.1719C145.266 61.2344 144.5 60.0156 143.938 59.5156C143.719 59.3281 143.5 59.1719 143.281 59.0469C144.062 58.6719 144.812 57.75 145.531 56.2812C145.656 56 145.875 55.5312 146.188 54.875L151.203 44.2344H145.719L140.328 56.0938ZM76.1797 122.219H65.5391V97.2344H60.0547V127H76.1797V122.219ZM96.2422 127V122.219H84.1953V114.25H95.1172V109.516H84.1953V102.016H96.0078V97.2344H78.7109V127H96.2422ZM115.742 122.031L121.93 97.2344H116.727L110.914 121.656C110.758 122 110.57 122.188 110.352 122.219H108.523L103.133 97.2344H97.6953L104.258 127L110.164 127.141C112.195 127.172 113.57 126.75 114.289 125.875C114.789 125.188 115.273 123.906 115.742 122.031ZM142.133 127V122.219H130.086V114.25H141.008V109.516H130.086V102.016H141.898V97.2344H124.602V127H142.133ZM162.898 122.219H152.258V97.2344H146.773V127H162.898V122.219ZM25.7656 180V169.406H32.75C36.3125 169.406 38.6562 168.094 39.7812 165.469C40.1562 164.562 40.3438 163.547 40.3438 162.422V156.891C40.3438 153.016 38.5469 150.781 34.9531 150.188C34.2656 150.094 33.5312 150.047 32.75 150.047L20.2812 150.234V180H25.7656ZM34.1094 154.828C34.5156 154.891 34.7344 155.094 34.7656 155.438V164.016C34.7031 164.391 34.4844 164.594 34.1094 164.625H25.7656V154.828H34.1094ZM59.0938 154.781C59.4375 154.844 59.625 155.031 59.6562 155.344V174.891C59.5938 175.234 59.4062 175.422 59.0938 175.453H49.6719C49.2969 175.453 49.1094 175.266 49.1094 174.891V155.344C49.1094 154.969 49.2969 154.781 49.6719 154.781H59.0938ZM43.4844 173.859C43.4844 178.047 45.7031 180.234 50.1406 180.422C50.3594 180.422 50.5781 180.422 50.7969 180.422H57.9688C62.7188 180.203 65.1562 178.016 65.2812 173.859V156.328C65.2188 152.016 62.7812 149.844 57.9688 149.812H50.7969C45.9531 149.875 43.5156 152.047 43.4844 156.328V173.859ZM82.4375 167.391C82.6875 167.391 82.875 167.562 83 167.906L88.6719 180H94.4844L89.3281 169.125C88.3906 167.156 87.5469 165.906 86.7969 165.375C86.5469 165.219 86.2969 165.078 86.0469 164.953C86.8906 164.547 87.6719 163.578 88.3906 162.047C88.5469 161.703 88.7188 161.312 88.9062 160.875L93.4062 150.234H87.9219L83 162C82.7812 162.344 82.5781 162.531 82.3906 162.562H76.9062V150.234H71.4219V180H76.9062V167.391H82.4375ZM115.344 180V175.219H103.297V167.25H114.219V162.516H103.297V155.016H115.109V150.234H97.8125V180H115.344ZM142.062 150.234H140.422L132.641 165.234L125.703 152.062C125.203 151.125 124.641 150.562 124.016 150.375C123.641 150.281 123.188 150.234 122.656 150.234H119.656V180H124.531V159.094L130.625 171.094H133.859L140.234 158.766V180H145.531V153.609C145.531 151.766 144.844 150.688 143.469 150.375C143.062 150.281 142.594 150.234 142.062 150.234ZM166.672 154.781C167.016 154.844 167.203 155.031 167.234 155.344V174.891C167.172 175.234 166.984 175.422 166.672 175.453H157.25C156.875 175.453 156.688 175.266 156.688 174.891V155.344C156.688 154.969 156.875 154.781 157.25 154.781H166.672ZM151.062 173.859C151.062 178.047 153.281 180.234 157.719 180.422C157.938 180.422 158.156 180.422 158.375 180.422H165.547C170.297 180.203 172.734 178.016 172.859 173.859V156.328C172.797 152.016 170.359 149.844 165.547 149.812H158.375C153.531 149.875 151.094 152.047 151.062 156.328V173.859ZM196.344 180H200.234V150.234H195.453V170.25L182.281 150.234H178.438V180H183.172V159.984L196.344 180Z" fill="white"/>
</svg>
